<?xml version="1.0" encoding="UTF-8" standalone="no"?>
<!-- Created with Inkscape (http://www.inkscape.org/) -->

<svg
   width="210mm"
   height="297mm"
   viewBox="0 0 210 297"
   version="1.1"
   id="svg29"
   inkscape:version="1.1.2 (b8e25be833, 2022-02-05)"
   sodipodi:docname="logo.svg"
   xmlns:inkscape="http://www.inkscape.org/namespaces/inkscape"
   xmlns:sodipodi="http://sodipodi.sourceforge.net/DTD/sodipodi-0.dtd"
   xmlns="http://www.w3.org/2000/svg"
   xmlns:svg="http://www.w3.org/2000/svg">
  <sodipodi:namedview
     id="namedview31"
     pagecolor="#ffffff"
     bordercolor="#666666"
     borderopacity="1.0"
     inkscape:pageshadow="2"
     inkscape:pageopacity="0.0"
     inkscape:pagecheckerboard="0"
     inkscape:document-units="mm"
     showgrid="false"
     inkscape:zoom="0.74029882"
     inkscape:cx="396.46153"
     inkscape:cy="561.93525"
     inkscape:window-width="1920"
     inkscape:window-height="1017"
     inkscape:window-x="-8"
     inkscape:window-y="-8"
     inkscape:window-maximized="1"
     inkscape:current-layer="layer1" />
  <defs
     id="defs26" />
  <g
     inkscape:label="Слой 1"
     inkscape:groupmode="layer"
     id="layer1">
    <g
       id="SvgjsG1037"
       featurekey="PG4fjM-0"
       transform="matrix(7.2983925,0,0,7.2983925,52.44036,63.341904)"
       fill="#47abff">
      <title
         id="title3">icon</title>
      <path
         d="m 0.76105,1.331 a 0.185,0.185 0 0 0 0.07256,0.16612 0.61547,0.61547 0 0 0 0.11976,0.07763 c 0.06486,0.03511 0.12857,0.071 0.19657,0.1009 a 4.51654,4.51654 0 0 0 0.447,0.165 Q 1.65185,1.85819 1.70706,1.87496 A 1.9216,1.9216 0 0 0 1.48289,1.86126 L 1.47877,1.85906 A 0.55261,0.55261 0 0 0 1.11829,1.80311 L 1.11141,1.80468 c 0.01,10e-4 0.00547,0.00168 -0.0138,0.00222 L 1.07714,1.81226 A 0.42511,0.42511 0 0 0 1.02844,1.82996 0.24071,0.24071 0 0 0 0.94789,1.88956 0.19841,0.19841 0 0 0 0.89889,2.01813 0.43429,0.43429 0 0 0 0.797,2.134 0.39625,0.39625 0 0 0 0.78393,2.493 a 0.76229,0.76229 0 0 0 0.05106,0.09372 0.90786,0.90786 0 0 0 0.06528,0.0886 1.14538,1.14538 0 0 0 0.16167,0.15781 2.10421,2.10421 0 0 0 0.3769,0.23514 q 0.1068,0.05459 0.21778,0.10191 l -0.01448,0.008 A 0.27931,0.27931 0 0 0 1.50723,3.44356 0.26458,0.26458 0 0 0 1.66944,3.63901 0.82636,0.82636 0 0 0 1.94603,3.71229 0.94235,0.94235 0 0 0 2.18877,3.71346 1.24591,1.24591 0 0 0 2.50891,3.6199 0.739,0.739 0 0 0 2.75284,3.45709 1.09462,1.09462 0 0 0 2.92948,3.45475 0.5954,0.5954 0 0 0 3.26155,3.32187 0.2128,0.2128 0 0 0 3.279,2.9862 Q 3.261,2.9672 3.24174,2.94964 A 0.62385,0.62385 0 0 0 3.25919,2.77518 0.88986,0.88986 0 0 0 3.1541,2.41198 1.50015,1.50015 0 0 0 3.0461,2.2305 c 0.20808,0.084 0.40932,0.182 0.61517,0.27 A 2.51309,2.51309 0 0 0 4.06753,2.64671 C 4.11241,2.65733 4.15564,2.67148 4.20017,2.68278 4.2524,2.69602 4.33836,2.69866 4.36423,2.62131 A 0.07709,0.07709 0 0 0 4.34758,2.53009 1.38784,1.38784 0 0 0 3.93458,2.30655 C 3.7858,2.25289 3.63337,2.20705 3.47972,2.16467 3.30687,2.11695 3.13272,2.0724 2.95852,2.02789 Q 2.91365,2.01347 2.86833,2 A 1.84124,1.84124 0 0 0 2.644,1.78032 2.93465,2.93465 0 0 0 1.85328,1.31512 2.23475,2.23475 0 0 0 1.13664,1.15764 0.52832,0.52832 0 0 0 0.85779,1.19955 0.18386,0.18386 0 0 0 0.76105,1.331 Z M 1.14848,2.13753 1.14682,2.13575 A 0.53345,0.53345 0 0 1 1.08736,2.05875 C 1.10799,2.05098 1.12864,2.04418 1.14764,2.03849 A 0.95523,0.95523 0 0 1 1.33925,2.00111 Q 1.38012,1.99771 1.42058,1.99688 c 0.01338,0.00779 0.02643,0.016 0.039,0.02486 A 0.52964,0.52964 0 0 1 1.51015,2.06239 L 1.52664,2.0782 1.54989,2.10573 A 0.39451,0.39451 0 0 1 1.61933,2.23917 1.08126,1.08126 0 0 1 1.66789,2.46017 2.07419,2.07419 0 0 1 1.43121,2.34542 1.63408,1.63408 0 0 1 1.24748,2.22242 C 1.22259,2.20317 1.19782,2.18331 1.17436,2.16228 L 1.1571,2.14609 Z m 0.6464,0.37152 C 1.79528,2.44777 1.79827,2.38656 1.79345,2.32593 A 0.59592,0.59592 0 0 0 1.74372,2.1263 0.51956,0.51956 0 0 0 1.673,2.01155 q 0.03228,0.004 0.06435,0.00891 0.08515,0.01291 0.17046,0.0306 A 0.2569,0.2569 0 0 0 1.95566,2.1935 1.14215,1.14215 0 0 0 2.04777,2.32191 1.08575,1.08575 0 0 0 2.19099,2.46143 1.11005,1.11005 0 0 0 1.97267,2.42092 0.08976,0.08976 0 0 0 1.89958,2.45792 0.094,0.094 0 0 0 1.88286,2.53775 l 2.6e-4,0.00126 -0.048,-0.01588 z m 1.04133,-0.03794 0.01443,0.01427 0.015,0.01658 A 0.42735,0.42735 0 0 1 2.90346,2.5525 L 2.91408,2.57105 C 2.90978,2.56331 2.9195,2.58389 2.92119,2.5889 l 0.00428,0.01817 2.3e-4,0.00419 1.2e-4,0.00192 -9.4e-4,0.005 -4e-4,10e-4 L 2.92334,2.62164 2.91911,2.62704 2.91869,2.62755 2.908,2.63658 2.89825,2.64358 2.8765,2.65476 2.8545,2.66393 C 2.86914,2.65829 2.8445,2.66646 2.84393,2.66662 A 0.398,0.398 0 0 1 2.80323,2.67549 3.05586,3.05586 0 0 0 2.50141,2.47249 1.47416,1.47416 0 0 1 2.169,2.211 1.00192,1.00192 0 0 1 2.08234,2.0929 2.36322,2.36322 0 0 1 2.56295,2.2792 1.23133,1.23133 0 0 1 2.83621,2.47109 Z M 2.67583,2.8468 2.7285,2.84428 2.74368,2.85761 A 0.77932,0.77932 0 0 1 2.87611,3.01137 C 2.88511,3.02503 2.89382,3.0389 2.902,3.05312 l 0.00982,0.01906 4.9e-4,0.00108 A 0.60642,0.60642 0 0 1 2.74168,3.03151 1.19779,1.19779 0 0 1 2.54598,2.94677 1.44738,1.44738 0 0 1 2.37517,2.83015 1.846,1.846 0 0 0 2.67583,2.84678 Z M 2.81413,2.2398 2.80761,2.23536 A 1.7322,1.7322 0 0 0 2.59383,2.11453 Q 2.66737,2.13302 2.74112,2.15109 2.77869,2.19436 2.81413,2.23981 Z M 1.48639,2.88171 C 1.43701,2.85614 1.36778,2.81645 1.31047,2.77952 A 1.54834,1.54834 0 0 1 1.13747,2.65029 C 1.11169,2.62793 1.08702,2.60429 1.06321,2.5797 L 1.05188,2.568 1.03714,2.55177 C 1.02397,2.53706 1.01148,2.52177 0.9993,2.50618 A 0.76528,0.76528 0 0 1 0.94309,2.42438 L 0.93387,2.40838 0.9267,2.39388 A 0.42434,0.42434 0 0 1 0.91,2.352 0.21569,0.21569 0 0 1 0.90242,2.21758 L 0.90356,2.21113 0.911,2.194 0.9172,2.18186 C 0.91453,2.187 0.9223,2.17367 0.92366,2.17163 l 0.01282,-0.017 0.01273,0.02224 a 0.5659,0.5659 0 0 0 0.07426,0.0952 1.27888,1.27888 0 0 0 0.32711,0.23642 2.89488,2.89488 0 0 0 0.68551,0.254 c 0.01752,0.01668 0.03546,0.03291 0.05338,0.049 a 2.30781,2.30781 0 0 0 0.3348,0.26393 1.26594,1.26594 0 0 0 0.233,0.11148 L 2.63627,3.18807 2.58432,3.18961 C 2.54666,3.19027 2.50932,3.18917 2.47219,3.18716 A 1.7802,1.7802 0 0 1 2.25933,3.162 L 2.25294,3.1609 2.24686,3.15968 l -0.02507,-0.005 -0.05,-0.011 C 2.13579,3.13535 2.10017,3.12597 2.06479,3.11596 1.99698,3.09683 1.93048,3.07449 1.86495,3.05021 A 3.37616,3.37616 0 0 1 1.48639,2.88172 Z M 2.40781,3.54537 A 1.12182,1.12182 0 0 1 2.23517,3.59285 C 2.21473,3.59692 2.19417,3.60012 2.1738,3.60263 L 2.1694,3.60312 2.16184,3.60375 2.13256,3.60518 A 1.08931,1.08931 0 0 1 1.87571,3.582 0.72068,0.72068 0 0 1 1.7433,3.54009 0.24,0.24 0 0 1 1.69692,3.51553 0.27647,0.27647 0 0 1 1.65281,3.48072 L 1.64692,3.47424 1.63892,3.46385 1.62626,3.4435 C 1.62991,3.44986 1.62144,3.43026 1.62026,3.42633 L 1.61766,3.41618 C 1.61946,3.42381 1.61689,3.40804 1.61673,3.40549 1.61643,3.40091 1.6165,3.39623 1.61654,3.3916 V 3.38996 L 1.61687,3.3872 A 0.21826,0.21826 0 0 1 1.62321,3.35679 L 1.62379,3.35447 1.62536,3.35038 1.632,3.33438 1.63859,3.32165 C 1.63422,3.32979 1.64453,3.31354 1.64624,3.31126 L 1.65344,3.30272 C 1.64914,3.30763 1.65812,3.29839 1.6599,3.29685 L 1.67211,3.2871 1.67445,3.2853 1.67611,3.28436 A 0.233,0.233 0 0 1 1.70445,3.27 l 0.00973,-0.00386 0.01705,-0.005 c 0.01092,-0.00295 0.022,-0.0051 0.033,-0.007 L 1.7813,3.25159 1.7926,3.25035 A 0.62187,0.62187 0 0 1 1.86331,3.24918 2.50626,2.50626 0 0 0 2.23977,3.34555 Q 2.29001,3.35422 2.34116,3.36003 A 1.80054,1.80054 0 0 0 2.54877,3.4262 Q 2.58428,3.43455 2.62048,3.44098 A 0.92986,0.92986 0 0 1 2.40781,3.54538 Z M 3.20014,3.09884 A 0.249,0.249 0 0 1 3.2207,3.13077 L 3.22344,3.13739 3.22861,3.15318 3.22966,3.15748 3.23043,3.17243 3.2297,3.177 3.22748,3.18542 3.22318,3.19499 3.22212,3.197 3.21969,3.20044 3.20708,3.21611 3.20694,3.21623 3.20172,3.22123 A 0.328,0.328 0 0 1 3.1621,3.25223 L 3.14903,3.26023 3.12871,3.27155 C 3.11496,3.27878 3.10088,3.28504 3.08671,3.29092 A 0.50119,0.50119 0 0 1 2.99961,3.3162 0.69994,0.69994 0 0 1 2.8497,3.32986 0.6363,0.6363 0 0 0 3.09543,3.19752 0.46592,0.46592 0 0 0 3.18791,3.08366 Z M 3.08057,2.77225 C 3.08218,2.7861 3.08319,2.80018 3.08392,2.81431 l 5.1e-4,0.02007 C 3.04771,2.81232 3.00984,2.79193 2.97155,2.77254 a 0.24905,0.24905 0 0 0 0.074,-0.07349 L 3.0593,2.67386 C 3.06561,2.6954 3.07116,2.71744 3.07572,2.7398 L 3.0778,2.75138 Z M 0.992,1.321 1.01726,1.31934 l 0.033,-7e-4 c 0.02318,-1.4e-4 0.04624,6.3e-4 0.06919,0.00192 0.0342,0.00187 0.06809,0.00519 0.10179,0.009 a 2.29822,2.29822 0 0 1 0.80215,0.26175 c 0.05232,0.02741 0.12551,0.07017 0.18389,0.107 0.065,0.04107 0.12792,0.08516 0.18892,0.13173 Q 2.43697,1.86112 2.47682,1.89429 C 2.43882,1.88489 2.40043,1.87663 2.36134,1.87088 2.11224,1.80247 1.86489,1.73036 1.62096,1.64933 A 4.26662,4.26662 0 0 1 1.17658,1.4806 C 1.12232,1.4556 1.06899,1.42884 1.01563,1.40224 L 1.00798,1.39824 0.99757,1.39275 0.96641,1.37355 A 0.28072,0.28072 0 0 1 0.93778,1.352 L 0.93039,1.34511 0.923,1.33557 0.92314,1.33548 0.92754,1.3337 0.93376,1.33185 A 0.34865,0.34865 0 0 1 0.992,1.321 Z"
         fill="#000000"
         id="path5" />
    </g>
  </g>
</svg>
