<svg width="320" height="70.80809817309826" viewBox="0 0 320 70.80809817309826" class="css-1j8o68f"><defs id="SvgjsDefs1036"></defs><g id="SvgjsG1037" featurekey="PG4fjM-0" transform="matrix(27.584476470947266,0,0,27.584476470947266,-20.61063092054839,-31.82640651888229)" fill="#47abff"><title xmlns="http://www.w3.org/2000/svg">icon</title><path xmlns="http://www.w3.org/2000/svg" d="M.76105,1.331a.185.185,0,0,0,.07256.16612.61547.61547,0,0,0,.11976.07763c.06486.03511.12857.071.19657.1009a4.51654,4.51654,0,0,0,.447.165q.05491.01754.11012.03431a1.9216,1.9216,0,0,0-.22417-.0137l-.00412-.0022a.55261.55261,0,0,0-.36048-.05595l-.00688.00157c.01.001.00547.00168-.0138.00222l-.02047.00536a.42511.42511,0,0,0-.0487.0177.24071.24071,0,0,0-.08055.0596.19841.19841,0,0,0-.049.12857A.43429.43429,0,0,0,.797,2.134a.39625.39625,0,0,0-.01307.359.76229.76229,0,0,0,.05106.09372.90786.90786,0,0,0,.06528.0886,1.14538,1.14538,0,0,0,.16167.15781,2.10421,2.10421,0,0,0,.3769.23514q.1068.05459.21778.10191l-.01448.008a.27931.27931,0,0,0-.13491.26538.26458.26458,0,0,0,.16221.19545.82636.82636,0,0,0,.27659.07328.94235.94235,0,0,0,.24274.00117,1.24591,1.24591,0,0,0,.32014-.09356.739.739,0,0,0,.24393-.16281,1.09462,1.09462,0,0,0,.17664-.00234.5954.5954,0,0,0,.33207-.13288A.2128.2128,0,0,0,3.279,2.9862q-.018-.019-.03726-.03656a.62385.62385,0,0,0,.01745-.17446.88986.88986,0,0,0-.10509-.3632,1.50015,1.50015,0,0,0-.108-.18148c.20808.084.40932.182.61517.27a2.51309,2.51309,0,0,0,.40626.14621c.04488.01062.08811.02477.13264.03607.05223.01324.13819.01588.16406-.06147a.07709.07709,0,0,0-.01665-.09122,1.38784,1.38784,0,0,0-.413-.22354c-.14878-.05366-.30121-.0995-.45486-.14188-.17285-.04772-.347-.09227-.5212-.13678Q2.91365,2.01347,2.86833,2A1.84124,1.84124,0,0,0,2.644,1.78032a2.93465,2.93465,0,0,0-.79072-.4652,2.23475,2.23475,0,0,0-.71664-.15748.52832.52832,0,0,0-.27885.04191A.18386.18386,0,0,0,.76105,1.331Zm.38743.80653-.00166-.00178a.53345.53345,0,0,1-.05946-.077c.02063-.00777.04128-.01457.06028-.02026a.95523.95523,0,0,1,.19161-.03738q.04087-.0034.08133-.00423c.01338.00779.02643.016.039.02486a.52964.52964,0,0,1,.05057.04065l.01649.01581.02325.02753a.39451.39451,0,0,1,.06944.13344,1.08126,1.08126,0,0,1,.04856.221,2.07419,2.07419,0,0,1-.23668-.11475,1.63408,1.63408,0,0,1-.18373-.123c-.02489-.01925-.04966-.03911-.07312-.06014l-.01726-.01619Zm.6464.37152c.0004-.06128.00339-.12249-.00143-.18312a.59592.59592,0,0,0-.04973-.19963A.51956.51956,0,0,0,1.673,2.01155q.03228.004.06435.00891.08515.01291.17046.0306a.2569.2569,0,0,0,.04785.14244,1.14215,1.14215,0,0,0,.09211.12841,1.08575,1.08575,0,0,0,.14322.13952,1.11005,1.11005,0,0,0-.21832-.04051.08976.08976,0,0,0-.07309.037.094.094,0,0,0-.01672.07983l.00026.00126-.048-.01588Zm1.04133-.03794.01443.01427.015.01658a.42735.42735,0,0,1,.03782.05054l.01062.01855c-.0043-.00774.00542.01284.00711.01785l.00428.01817.00023.00419.00012.00192-.00094.005-.0004.001-.00114.00246-.00423.0054-.00042.00051L2.908,2.63658l-.00975.007-.02175.01118-.022.00917c.01464-.00564-.01.00253-.01057.00269a.398.398,0,0,1-.0407.00887,3.05586,3.05586,0,0,0-.30182-.203A1.47416,1.47416,0,0,1,2.169,2.211a1.00192,1.00192,0,0,1-.08666-.1181,2.36322,2.36322,0,0,1,.48061.1863A1.23133,1.23133,0,0,1,2.83621,2.47109Zm-.16038.37569.05267-.00252.01518.01333a.77932.77932,0,0,1,.13243.15376c.009.01366.01771.02753.02589.04175l.00982.01906.00049.00108a.60642.60642,0,0,1-.17063-.04175,1.19779,1.19779,0,0,1-.1957-.08474,1.44738,1.44738,0,0,1-.17081-.11662A1.846,1.846,0,0,0,2.67583,2.84678Zm.1383-.607-.00652-.00444a1.7322,1.7322,0,0,0-.21378-.12083q.07354.01849.14729.03656Q2.77869,2.19436,2.81413,2.23981Zm-1.32774.64191c-.04938-.02557-.11861-.06526-.17592-.10219a1.54834,1.54834,0,0,1-.173-.12923c-.02578-.02236-.05045-.046-.07426-.07059L1.05188,2.568l-.01474-.01623c-.01317-.01471-.02566-.03-.03784-.04559a.76528.76528,0,0,1-.05621-.0818l-.00922-.016L.9267,2.39388A.42434.42434,0,0,1,.91,2.352a.21569.21569,0,0,1-.00758-.13442l.00114-.00645L.911,2.194l.0062-.01214C.91453,2.187.9223,2.17367.92366,2.17163l.01282-.017.01273.02224a.5659.5659,0,0,0,.07426.0952,1.27888,1.27888,0,0,0,.32711.23642,2.89488,2.89488,0,0,0,.68551.254c.01752.01668.03546.03291.05338.049a2.30781,2.30781,0,0,0,.3348.26393,1.26594,1.26594,0,0,0,.233.11148l-.021.00117-.05195.00154c-.03766.00066-.075-.00044-.11213-.00245A1.7802,1.7802,0,0,1,2.25933,3.162l-.00639-.0011-.00608-.00122-.02507-.005-.05-.011c-.036-.00833-.07162-.01771-.107-.02772-.06781-.01913-.13431-.04147-.19984-.06575A3.37616,3.37616,0,0,1,1.48639,2.88172Zm.92142.66366a1.12182,1.12182,0,0,1-.17264.04748c-.02044.00407-.041.00727-.06137.00978l-.0044.00049-.00756.00063-.02928.00143A1.08931,1.08931,0,0,1,1.87571,3.582a.72068.72068,0,0,1-.13241-.04191.24.24,0,0,1-.04638-.02456.27647.27647,0,0,1-.04411-.03481l-.00589-.00648-.008-.01039-.01266-.02035c.00365.00636-.00482-.01324-.006-.01717l-.0026-.01015c.0018.00763-.00077-.00814-.00093-.01069-.0003-.00458-.00023-.00926-.00019-.01389l0-.00164.00033-.00276a.21826.21826,0,0,1,.00634-.03041l.00058-.00232.00157-.00409.00664-.016.00659-.01273c-.00437.00814.00594-.00811.00765-.01039l.0072-.00854c-.0043.00491.00468-.00433.00646-.00587l.01221-.00975.00234-.0018.00166-.00094A.233.233,0,0,1,1.70445,3.27l.00973-.00386.01705-.005c.01092-.00295.022-.0051.033-.007l.01707-.00255.0113-.00124a.62187.62187,0,0,1,.07071-.00117,2.50626,2.50626,0,0,0,.37646.09637q.05024.00867.10139.01448a1.80054,1.80054,0,0,0,.20761.06617q.03551.00835.07171.01478A.92986.92986,0,0,1,2.40781,3.54538Zm.79233-.44653a.249.249,0,0,1,.02056.03193l.00274.00662.00517.01579.00105.0043.00077.01495L3.2297,3.177l-.00222.00842-.0043.00957L3.22212,3.197l-.00243.00344-.01261.01567-.00014.00012-.00522.005a.328.328,0,0,1-.03962.031l-.01307.008-.02032.01132c-.01375.00723-.02783.01349-.042.01937a.50119.50119,0,0,1-.0871.02528.69994.69994,0,0,1-.14991.01366.6363.6363,0,0,0,.24573-.13234.46592.46592,0,0,0,.09248-.11386Zm-.11957-.32659c.00161.01385.00262.02793.00335.04206l.00051.02007c-.03672-.02206-.07459-.04245-.11288-.06184a.24905.24905,0,0,0,.074-.07349l.01375-.02519c.00631.02154.01186.04358.01642.06594l.00208.01158ZM.992,1.321l.02526-.00166.033-.0007c.02318-.00014.04624.00063.06919.00192.0342.00187.06809.00519.10179.009a2.29822,2.29822,0,0,1,.80215.26175c.05232.02741.12551.07017.18389.107.065.04107.12792.08516.18892.13173q.04077.03108.08062.06425c-.038-.0094-.07639-.01766-.11548-.02341-.2491-.06841-.49645-.14052-.74038-.22155a4.26662,4.26662,0,0,1-.44438-.16873c-.05426-.025-.10759-.05176-.16095-.07836l-.00765-.004L.99757,1.39275l-.03116-.0192A.28072.28072,0,0,1,.93778,1.352L.93039,1.34511.923,1.33557l.00014-.00009.0044-.00178.00622-.00185A.34865.34865,0,0,1,.992,1.321Z" fill="#000000"></path></g><g id="SvgjsG1038" featurekey="jxYttZ-0" transform="matrix(2.1199915409088135,0,0,2.1199915409088135,114.2760235409754,8.781638917447674)" fill="##000000"><path d="M12.98 9.88 l0.02 0 l0 5.26 l-0.02 0 c-0.04 2.92 -2.32 5.06 -5.14 5.06 s-5.1 -2.14 -5.14 -5.06 l0 -5.26 c0.04 -2.9 2.32 -5.06 5.14 -5.06 s5.1 2.16 5.14 5.06 z M10.92 15.059999999999999 l0 -5.1 c0 -1.8 -1.38 -3.06 -3.08 -3.06 s-3.08 1.26 -3.08 3.06 l0 5.1 c0 1.8 1.38 3.08 3.08 3.08 s3.08 -1.28 3.08 -3.08 z M23.560000000000002 10.12 l-3.5 4.94 l3.5 4.94 l-2.36 0 l-2.2 -3.3 l-2.22 3.3 l-2.36 0 l3.52 -4.94 l-3.52 -4.94 l2.36 0 l2.22 3.3 l2.2 -3.3 l2.36 0 z M38.56 12.5 c0 4.14 -3.22 7.48 -7.2 7.5 l-5.84 0 l0 -15 l5.84 0 c3.98 0.02 7.2 3.38 7.2 7.5 z M31.32 18.16 c1.32 0 2.58 -0.56 3.52 -1.62 c0.96 -1.08 1.5 -2.5 1.5 -4.04 c0 -1.52 -0.54 -2.96 -1.5 -4.02 c-0.94 -1.06 -2.2 -1.64 -3.52 -1.64 l-3.58 0 l0 11.32 l3.58 0 z M50.28 15.08 l0 0.74 l-7.78 0 c0 1.82 1.74 2.7 3.02 2.7 c0.94 0 1.98 -0.5 2.54 -1.3 l1.42 1.28 c-0.66 0.9 -1.74 1.7 -3.96 1.7 c-3.2 0 -5.16 -2.18 -5.16 -5.12 s1.9 -5.14 4.96 -5.14 s4.46 1.7 4.88 4.18 c0.06 0.32 0.08 0.64 0.08 0.96 z M42.540000000000006 14.120000000000001 l5.58 0 c0 -1.6 -1.28 -2.48 -2.8 -2.48 s-2.78 1.02 -2.78 2.48 z M57.24000000000001 9.94 c2.84 0 4.94 2.2 4.94 5.14 s-2.1 5.12 -4.94 5.12 c-0.96 0 -2.06 -0.36 -2.84 -0.94 l0 0.74 l-2.06 0 l0 -15 l2.06 0 l0 5.9 c0.66 -0.54 1.88 -0.96 2.84 -0.96 z M57.040000000000006 18.52 c1.7 0 3.08 -1.44 3.08 -3.44 c0 -2.02 -1.38 -3.44 -3.08 -3.44 c-1.12 0 -2.1 0.5 -2.64 1.56 c-0.28 0.56 -0.44 1.2 -0.44 1.88 s0.16 1.32 0.44 1.86 c0.54 1.06 1.52 1.58 2.64 1.58 z M73.5 15.08 l0 0.74 l-7.78 0 c0 1.82 1.74 2.7 3.02 2.7 c0.94 0 1.98 -0.5 2.54 -1.3 l1.42 1.28 c-0.66 0.9 -1.74 1.7 -3.96 1.7 c-3.2 0 -5.16 -2.18 -5.16 -5.12 s1.9 -5.14 4.96 -5.14 s4.46 1.7 4.88 4.18 c0.06 0.32 0.08 0.64 0.08 0.96 z M65.76 14.120000000000001 l5.58 0 c0 -1.6 -1.28 -2.48 -2.8 -2.48 s-2.78 1.02 -2.78 2.48 z M81.44000000000001 10.24 l-0.44 1.62 c-0.14 -0.08 -0.58 -0.22 -0.94 -0.22 c-1.7 0 -2.5 1.62 -2.5 3.62 l0 4.74 l-2.06 0 l0 -9.88 l2.06 0 l0 1.4 c0.24 -0.92 1.3 -1.58 2.48 -1.58 c0.54 0 1.12 0.14 1.4 0.3 z M85.00000000000001 10.12 l0 9.88 l-2.06 0 l0 -9.88 l2.06 0 z M85.10000000000001 6.5 c0 0.64 -0.5 1.14 -1.14 1.14 c-0.62 0 -1.12 -0.5 -1.12 -1.14 c0 -0.62 0.5 -1.12 1.12 -1.12 c0.64 0 1.14 0.5 1.14 1.12 z M97.04000000000002 14.3 l0 5.7 l-2.06 0 l0 -5.5 c0 -2 -0.62 -2.88 -2.32 -2.88 c-1.92 0 -2.7 1.34 -2.7 3.08 l0 5.3 l-2.06 0 l0 -9.88 l2.06 0 l0 1.6 c0.28 -0.88 1.52 -1.68 2.7 -1.76 c2.68 -0.2 4.38 1.1 4.38 4.34 z"></path></g></svg>